<svg id="Layer_1" data-name="Layer 1" xmlns="http://www.w3.org/2000/svg" viewBox="0 0 191.91 120.58"><defs><style>.cls-1{fill:gray;}.cls-2{fill:#2a0c56;}.cls-3{fill:#fff;}</style></defs><title>stopmtl-logo</title><path class="cls-1" d="M52.42,118c0,1.73-.58,2.47-2.31,2.47H41.62c-1.73,0-2.39-.74-2.39-2.47V91.88c-.08.25-1.65,6-2.64,8.66l-3.62,9c-.66,1.65-1.57,2.47-3.22,2.47H22.58c-1.65,0-2.47-1-3.13-2.47L14.92,99.05a63.6,63.6,0,0,1-2.15-6.92V118c0,1.73-.57,2.47-2.3,2.47H2.39C.66,120.48,0,119.74,0,118V66.91c0-1.73.66-2.47,2.39-2.47h8.08a2.06,2.06,0,0,1,2.14,1.32L23.82,91c1.15,2.8,2.22,6.18,2.39,6.51a50.55,50.55,0,0,1,2.39-6.35L39.4,65.59c.32-.82,1-1.15,2.22-1.15h8.49c1.73,0,2.31.74,2.31,2.47Z"/><path class="cls-1" d="M92.9,64.44c1.73,0,2.48.57,2.48,2.31v6.42c0,1.74-.75,2.39-2.48,2.39H82.36V118c0,1.73-.58,2.47-2.31,2.47h-8.9c-1.74,0-2.39-.74-2.39-2.47V75.56H58.21c-1.74,0-2.48-.65-2.48-2.39V66.75c0-1.74.74-2.31,2.48-2.31Z"/><path class="cls-1" d="M112.24,109.36h16.15c1.73,0,2.48.57,2.48,2.31v6.42c0,1.74-.75,2.39-2.48,2.39H100.7c-1.48,0-2.06-.82-2.06-2.47V66.91c0-1.73.66-2.47,2.39-2.47h8.9c1.73,0,2.31.74,2.31,2.47Z"/><path class="cls-2" d="M40,20.74c0-3.79-2.63-5.19-6.43-5.19S27,17,27,20.74v.83a3.77,3.77,0,0,0,2.64,3.54l13.85,4.7c6.1,2.06,10.3,6.34,10.3,12.44v5.86c0,7.08-5,14.09-20.52,14.09s-20.69-7-20.69-14.09V42.58c0-1.73.66-2.47,2.39-2.47h8.57c1.73,0,2.31.74,2.31,2.47v3.71c0,3.79,3.21,5.19,7.25,5.19s7.34-1.4,7.34-5.19V44.64c0-3-4-4.36-7.09-5.52L21.51,34.67a12.27,12.27,0,0,1-7.66-11V18.93c0-7.09,4.28-14.09,19.53-14.09s19.86,7,19.86,14.09V22c0,1.73-.66,2.47-2.39,2.47H42.28C40.55,24.45,40,23.71,40,22Z"/><path class="cls-2" d="M98.08,18.93c0-7.09,5.52-14.09,21-14.09s21.1,7,21.1,14.09V48.11c0,7.08-5.61,14.09-21.1,14.09s-21-7-21-14.09Zm28.52,2.39c0-3.79-3.46-5.36-7.5-5.36s-7.42,1.57-7.42,5.36v24.4c0,3.79,3.38,5.35,7.42,5.35s7.5-1.56,7.5-5.35Z"/><path class="cls-2" d="M147.68,64.29c-3.21,0-5.14-2-5.14-5.22V8c0-3.27,1.93-5.22,5.14-5.22h17.8c17.46,0,23.69,8.7,23.69,16.84v8.82c0,8.14-6.23,16.84-23.69,16.84h-3.84V59.07c0,3.31-1.84,5.22-5.06,5.22Zm17.8-35.66c1.78,0,4.76-.34,4.76-2.61V22c0-2.27-3-2.61-4.76-2.61h-3.84v9.26Z"/><path class="cls-3" d="M165.48,5.49c15.5,0,20.94,7,20.94,14.1v8.82c0,7.09-5.44,14.09-20.94,14.09h-6.59V59.07c0,1.73-.58,2.47-2.31,2.47h-8.9c-1.73,0-2.39-.74-2.39-2.47V8c0-1.73.66-2.48,2.39-2.48h17.8m-6.59,25.88h6.59c4,0,7.5-1.56,7.5-5.35V22c0-3.79-3.46-5.36-7.5-5.36h-6.59V31.37M165.48,0h-17.8C143,0,139.8,3.2,139.8,8v51.1c0,4.76,3.17,8,7.88,8h8.9c4.74,0,7.8-3.12,7.8-8V48h1.1c19.49,0,26.43-10.12,26.43-19.59V19.59C191.91,10.12,185,0,165.48,0Zm-1.1,22.12h1.1a6.65,6.65,0,0,1,2,.26v3.23a6.26,6.26,0,0,1-2,.27h-1.1V22.12Z"/><path class="cls-2" d="M158.89,42.5V59.07c0,1.73-.58,2.47-2.31,2.47h-8.9c-1.73,0-2.39-.74-2.39-2.47V8c0-1.73.66-2.48,2.39-2.48h17.8c15.5,0,20.94,7,20.94,14.1v8.82c0,7.09-5.44,14.09-20.94,14.09Zm0-25.88V31.37h6.59c4,0,7.5-1.56,7.5-5.35V22c0-3.79-3.46-5.36-7.5-5.36Z"/><rect x="68.76" y="64.43" width="13.6" height="11.14"/><path class="cls-2" d="M92.9,5.49H58.21c-1.73,0-2.48.58-2.48,2.31v6.43c0,1.73.75,2.39,2.48,2.39H68.76V64.43h13.6V16.62H92.9c1.73,0,2.48-.66,2.48-2.39V7.8C95.38,6.07,94.63,5.49,92.9,5.49Z"/><path d="M136.32,120c0,.3-.11.41-.39.41h-1.32c-.31,0-.42-.11-.42-.41v-1.76c0-.29.11-.42.42-.42h1.32c.28,0,.39.13.39.42Z"/><path d="M146.62,112.34v.39c0,.31-.11.42-.4.42H145c-.31,0-.42-.11-.42-.42v-.24c0-.92-.5-1.45-2.17-1.45s-2.16.53-2.16,1.45v4.92c0,.93.51,1.46,2.16,1.46s2.17-.53,2.17-1.46V117c0-.28.11-.41.42-.41h1.19c.29,0,.4.13.4.41v.6c0,1.8-1.13,3-4.23,3s-4.2-1.21-4.2-3v-5.23c0-1.81,1.13-3,4.23-3S146.62,110.53,146.62,112.34Z"/><path d="M148.78,112.29c0-1.76,1.14-3,4.15-3s4.16,1.21,4.16,3V120c0,.31-.11.44-.4.44h-1.14c-.31,0-.4-.13-.42-.44l0-.63a5.58,5.58,0,0,1-3.48,1.25c-2,0-3.1-1.23-3.1-2.66v-1.06c0-1.42,1-2.66,3.06-2.66H155v-1.69c0-.9-.46-1.5-2.13-1.5s-2.18.53-2.18,1.43v.18c0,.31-.11.44-.41.44h-1.15c-.28,0-.39-.13-.39-.44Zm6.26,5.43v-1.89h-3c-1.1,0-1.45.48-1.45,1.34v.44c0,.86.48,1.23,1.58,1.23A4.79,4.79,0,0,0,155,117.72Z"/></svg>